<svg xmlns="http://www.w3.org/2000/svg" viewBox="0 0 471.45 432.16"><defs><style>.cls-1{fill:#91a8ff;opacity:0.2;isolation:isolate;}.cls-2{fill:none;stroke:#65a7dd;stroke-miterlimit:10;stroke-width:4px;}.cls-3{fill:#cae0ff;}.cls-4{fill:#a2bdf4;}.cls-5{fill:#94b8ed;}.cls-6{fill:#b6ceff;}</style></defs><title>Ресурс 8</title><g id="Слой_2" data-name="Слой 2"><g id="Слой_7" data-name="Слой 7"><polygon class="cls-1" points="107.7 274.16 469.7 413.16 470.7 180.16 142.7 204.16 107.7 274.16"/><polygon class="cls-1" points="341.7 261.16 1.7 432.16 0.7 157.16 328.7 181.16 341.7 261.16"/><polyline class="cls-2" points="0.7 125.16 48.7 107.16 47.73 233.38 66.7 233.16 66.7 102.16 313.7 2.16 408.7 41.16 408.7 190.16 424.7 190.16 423.7 47.16 470.7 66.16"/><path class="cls-3" d="M375,64.43h0c4.88-2.24,8.92-.4,9,4.08l1.4,97.91c.06,4.49-3.88,10-8.76,12.24h0c-4.87,2.24-8.92.4-9-4.09l-1.4-97.91C366.17,69.51,370.18,66.65,375,64.43Z"/><path class="cls-4" d="M376.82,66.25h0c4.87-2.24,8.92-.4,9,4.09l1.4,97.91c.06,4.49-3.87,10-8.75,12.23h0c-4.88,2.24-8.92.4-9-4.08l-1.4-97.91C368,74,371.94,68.49,376.82,66.25Z"/><ellipse class="cls-5" cx="304.43" cy="225.19" rx="28.56" ry="47.76" transform="translate(-65.96 146.46) rotate(-24.49)"/><path class="cls-6" d="M330.43,213.35c-10.28-22.56-29-36.42-43.13-32.58l100.13-45.61,0,0c.55-.28,1.11-.56,1.68-.82a47.76,47.76,0,0,1,39.6,86.93c-.57.26-1.15.5-1.73.73l0,.05L324.76,268.67l-.11-.23C338.63,261.61,341.25,237.11,330.43,213.35Z"/><path class="cls-4" d="M428.13,85.54h0c4.88-2.24,8.92-.4,9,4.08l1.4,97.91c.06,4.49-3.88,10-8.75,12.24h0c-4.88,2.24-8.92.4-9-4.09l-1.4-97.91C419.32,93.28,423.26,87.78,428.13,85.54Z"/><path class="cls-3" d="M431.32,85.22h0c4.88-2.24,8.92-.4,9,4.08l1.4,97.91c.06,4.49-3.88,10-8.75,12.24h0c-4.88,2.24-8.92.4-9-4.09l-1.4-97.91C422.51,93,426.45,87.46,431.32,85.22Z"/><path class="cls-3" d="M427,96.27l10.38-8.52c1.31-1.08,1.08-2.58-.52-3.34L384.79,62.28c-1.6-.76-7.64,1.39-9,2.48l-4.72,5.43c-1.32,1.08-1.09,2.58.51,3.34l50.09,23.33A5.45,5.45,0,0,0,427,96.27Z"/><polygon class="cls-4" points="420.7 98.39 368.86 74.48 369.85 71.37 422.69 97.19 420.7 98.39"/><path class="cls-3" d="M73.52,127.23h0c-3.9-1.75-7.13-.31-7.19,3.18l-1.17,76.3c-.06,3.5,3.09,7.79,7,9.53h0c3.9,1.75,7.13.31,7.19-3.19l1.17-76.3C80.6,131.19,77.39,129,73.52,127.23Z"/><path class="cls-4" d="M72.09,128.65h0c-3.9-1.74-7.14-.31-7.19,3.19l-1.18,76.3c0,3.5,3.09,7.78,7,9.53h0c3.9,1.74,7.14.31,7.19-3.19l1.18-76.3C79.13,134.68,76,130.39,72.09,128.65Z"/><ellipse class="cls-5" cx="132.4" cy="242.94" rx="37.7" ry="22.55" transform="translate(-133.37 319.87) rotate(-77.55)"/><path class="cls-6" d="M110.38,238.08c4.22-19.1,16.39-32.89,27.93-32.25L53.5,187.11v0c-.48-.12-1-.25-1.44-.35A37.7,37.7,0,1,0,35.8,260.42c.49.11,1,.2,1.45.28v0l86.63,19.12,0-.19C112,276.69,105.94,258.21,110.38,238.08Z"/><path class="cls-4" d="M31,143.7h0c-3.9-1.74-7.13-.31-7.18,3.19l-1.18,76.3c-.06,3.5,3.09,7.78,7,9.53h0c3.9,1.74,7.13.31,7.19-3.19L38,153.23C38.08,149.73,34.93,145.44,31,143.7Z"/><path class="cls-3" d="M28.48,143.45h0c-3.9-1.74-7.13-.3-7.19,3.19l-1.17,76.3c-.06,3.5,3.09,7.79,7,9.53h0c3.9,1.74,7.13.31,7.19-3.19L35.47,153C35.53,149.49,32.38,145.2,28.48,143.45Z"/><path class="cls-3" d="M31.93,152.06l-8.3-6.63c-1.05-.84-.86-2,.42-2.6l41.66-17.27c1.28-.59,6.11,1.08,7.16,1.92l3.78,4.24c1,.84.87,2-.41,2.6L36.16,152.53A4.45,4.45,0,0,1,31.93,152.06Z"/><polygon class="cls-4" points="36.97 153.71 78.45 135.06 77.65 132.64 35.38 152.78 36.97 153.71"/></g></g></svg>