<svg xmlns="http://www.w3.org/2000/svg" viewBox="0 0 470.7 409"><defs><style>.cls-1{fill:#91a8ff;opacity:0.2;isolation:isolate;}.cls-2{fill:none;stroke:#65a7dd;stroke-miterlimit:10;stroke-width:4px;}.cls-3{fill:#a2bdf4;}.cls-4{fill:#b6ceff;}.cls-5{fill:#90b2f4;}.cls-6{fill:#6a95db;}</style></defs><title>Ресурс 10</title><g id="Слой_2" data-name="Слой 2"><g id="Слой_3" data-name="Слой 3"><path class="cls-1" d="M198.7,152C118.51,152,47.05,171,.7,200.51v160C47.05,390.05,118.51,409,198.7,409c139.73,0,253-57.53,253-128.5S338.43,152,198.7,152Z"/><path class="cls-1" d="M272.7,92c80.19,0,151.65,19,198,48.51v160C424.35,330.05,352.89,349,272.7,349c-139.73,0-253-57.53-253-128.5S133,92,272.7,92Z"/><polyline class="cls-2" points="0.7 334 83.7 365 84.7 307 95.7 322 94.7 365 406.7 241 406.7 172 421.7 172 421.7 235 469.7 257"/><polygon class="cls-3" points="0.7 74 79.7 136 60.7 334 0.7 300 0.7 74"/><polygon class="cls-4" points="0.7 74 79.7 136 189.7 119 115.7 59 0.7 74"/><polygon class="cls-5" points="189.7 119 154.7 313 60.7 334 79.7 136 189.7 119"/><ellipse class="cls-6" cx="116.03" cy="263.22" rx="48.86" ry="36.41" transform="translate(-165.28 203.11) rotate(-54.15)"/><path class="cls-6" d="M141.11,192.47l-23.52,3.26c-4,.55-6.83-2.15-6.33-6l1.93-14.87a10,10,0,0,1,8.15-8l23.53-3.26c4-.55,6.83,2.15,6.33,6l-1.94,14.87A10,10,0,0,1,141.11,192.47Z"/><polygon class="cls-3" points="469.7 12.28 406.58 61.81 421.76 220 469.7 182 469.7 12.28"/><polygon class="cls-4" points="469.7 12.28 406.58 61.81 318.7 48.23 377.7 0 469.7 12.28"/><polygon class="cls-5" points="318.7 48.23 346.66 203.22 421.76 220 406.58 61.81 318.7 48.23"/><ellipse class="cls-6" cx="377.56" cy="163.45" rx="29.09" ry="39.03" transform="translate(-24.2 252.09) rotate(-35.85)"/><path class="cls-6" d="M360.5,110.29l18.31,3.08c3.1.52,5.24-1.65,4.74-4.84l-1.9-12.29a8.59,8.59,0,0,0-6.53-6.74l-18.31-3.08c-3.1-.52-5.23,1.66-4.74,4.84l1.9,12.29A8.58,8.58,0,0,0,360.5,110.29Z"/></g></g></svg>