<svg xmlns="http://www.w3.org/2000/svg" viewBox="0 0 471.49 491.13"><defs><style>.cls-1{fill:none;stroke:#65a7dd;stroke-miterlimit:10;stroke-width:4px;}.cls-2{fill:#a2bdf4;}.cls-3{fill:#90b2f4;}.cls-4{fill:#737dc6;opacity:0.5;}.cls-4,.cls-6{isolation:isolate;}.cls-5{fill:#b6ceff;}.cls-6{fill:#91a8ff;opacity:0.2;}.cls-7{fill:#cae0ff;}</style></defs><title>Ресурс 11</title><g id="Слой_2" data-name="Слой 2"><g id="Слой_6" data-name="Слой 6"><polyline class="cls-1" points="0.7 460 75.7 432 76.7 338 88.7 332 88.7 428 424.7 295 424.7 221 435.7 226 435.7 297 470.7 312"/><polygon class="cls-2" points="309.7 4 320.7 0 470.7 60 470.7 69 309.7 4"/><path class="cls-3" d="M270.57,69.88c0-4.4-3.61-6.55-8-4.79L.7,170.08v257L262.86,322c4.4-1.77,8-6.81,8-11.21Z"/><ellipse class="cls-4" cx="90.53" cy="384.52" rx="3.64" ry="2.47" transform="translate(-272.02 227.65) rotate(-53.35)"/><ellipse class="cls-4" cx="81.7" cy="388" rx="3.64" ry="2.47" transform="translate(-278.37 221.97) rotate(-53.35)"/><ellipse class="cls-4" cx="72.87" cy="391.48" rx="3.64" ry="2.47" transform="translate(-284.73 216.29) rotate(-53.35)"/><polygon class="cls-2" points="266.24 64.53 244.7 64 0.7 160 0.7 170.08 266.24 64.53"/><path class="cls-3" d="M470.7,66.7,314.21,4c-3.45-1.38-6.28.31-6.29,3.76l-.22,192.93c0,3.45,2.82,7.41,6.27,8.79L470.7,272.28Z"/><ellipse class="cls-4" cx="423.15" cy="247.71" rx="1.87" ry="2.75" transform="translate(-64.21 301.53) rotate(-36.65)"/><ellipse class="cls-4" cx="429.82" cy="250.34" rx="1.87" ry="2.75" transform="translate(-64.47 306.02) rotate(-36.65)"/><ellipse class="cls-4" cx="436.48" cy="252.98" rx="1.87" ry="2.75" transform="translate(-64.72 310.52) rotate(-36.65)"/><path class="cls-5" d="M470.7,79.68,324.91,21.23c-2.59-1-4.71.23-4.71,2.82L320,194.17a7.84,7.84,0,0,0,4.7,6.59l146,58.54Z"/><polygon class="cls-6" points="97.08 330.09 470.23 491.13 470.23 283.96 336.87 229.82 97.08 330.09"/><polygon class="cls-6" points="192.76 219.94 470.7 339.9 470.7 185.58 371.37 145.26 192.76 219.94"/><path class="cls-5" d="M256.92,87.15c0-3.3-2.7-4.91-6-3.59L2.7,183.08v229l248.49-99.62c3.3-1.32,6-5.11,6-8.4Z"/><path class="cls-7" d="M148.7,125,.7,184.06v228.7L79.7,381C82.7,372,146.7,137,148.7,125Z"/></g></g></svg>