<svg xmlns="http://www.w3.org/2000/svg" viewBox="0 0 470.77 362.85"><defs><style>.cls-1{fill:#91a8ff;opacity:0.2;isolation:isolate;}.cls-2{fill:none;stroke:#65a7dd;stroke-miterlimit:10;stroke-width:4px;}.cls-3{fill:#90b2f4;}.cls-4{fill:#a2bdf4;}</style></defs><title>Ресурс 9</title><g id="Слой_2" data-name="Слой 2"><g id="Слой_5" data-name="Слой 5"><path class="cls-1" d="M184.83,0C110,0,43.27,21.47,0,55V236.18c43.27,33.48,110,54.95,184.83,54.95C315.26,291.13,421,226,421,145.56S315.26,0,184.83,0Z"/><path class="cls-1" d="M337.77,85C391.32,85,439,102.62,470,130.11V278.89C439,306.38,391.32,324,337.77,324c-93.31,0-168.95-53.5-168.95-119.5S244.46,85,337.77,85Z"/><polyline class="cls-2" points="400 203 246 267 32 183 116 150 102 144 19 177 1 170"/><polyline class="cls-2" points="470 361 265 276 455 191"/><ellipse class="cls-3" cx="189" cy="115.09" rx="153" ry="61.09"/><ellipse class="cls-4" cx="188.2" cy="120.49" rx="132.21" ry="50.51"/><path class="cls-3" d="M470,166.37c-17.62-4.65-38.74-7.37-61.45-7.37C347,159,297.1,178.92,297.1,203.5S347,248,408.55,248c22.71,0,43.83-2.72,61.45-7.37Z"/><path class="cls-4" d="M470,179.15c-16.76-5.31-38.4-8.51-62-8.51-53.19,0-96.31,16.2-96.31,36.18S354.78,243,408,243c23.63,0,45.27-3.2,62-8.51Z"/></g></g></svg>